<svg width="90" height="34" viewBox="0 0 70 26" fill="none" xmlns="http://www.w3.org/2000/svg">
<circle cx="12" cy="13" r="12" fill="#D02E2D"/>
<path d="M12.6074 7.8C13.7381 7.8 14.6821 8.168 15.4394 8.904C16.1968 9.62933 16.5754 10.5467 16.5754 11.656C16.5754 12.7547 16.1968 13.672 15.4394 14.408C14.6821 15.1333 13.7381 15.496 12.6074 15.496H10.7354V19H8.30344V7.8H12.6074ZM12.5114 13.256C12.9914 13.256 13.3754 13.1067 13.6634 12.808C13.9621 12.5093 14.1114 12.1253 14.1114 11.656C14.1114 11.1867 13.9621 10.8027 13.6634 10.504C13.3754 10.1947 12.9914 10.04 12.5114 10.04H10.7354V13.256H12.5114Z" fill="white"/>
<g filter="url(#filter0_b_10_564)">
<rect x="16" width="54" height="26" rx="12" fill="white" fill-opacity="0.6"/>
<path d="M33.584 6.8C34.7147 6.8 35.6587 7.168 36.416 7.904C37.1733 8.62933 37.552 9.54667 37.552 10.656C37.552 11.7547 37.1733 12.672 36.416 13.408C35.6587 14.1333 34.7147 14.496 33.584 14.496H31.712V18H29.28V6.8H33.584ZM33.488 12.256C33.968 12.256 34.352 12.1067 34.64 11.808C34.9387 11.5093 35.088 11.1253 35.088 10.656C35.088 10.1867 34.9387 9.80267 34.64 9.504C34.352 9.19467 33.968 9.04 33.488 9.04H31.712V12.256H33.488ZM46.9611 6.8V9.056H43.8411V18H41.4091V9.056H38.3051V6.8H46.9611ZM60.6175 12.368C60.6175 12.848 60.5642 13.3173 60.4575 13.776C60.3615 14.2347 60.2175 14.6773 60.0255 15.104C59.8335 15.52 59.5828 15.9093 59.2735 16.272C58.9748 16.624 58.6335 16.9387 58.2495 17.216C57.8655 17.4933 57.4175 17.7227 56.9055 17.904C56.4042 18.0747 55.8655 18.1813 55.2895 18.224V19.92H52.9215V18.224C52.4308 18.1813 51.9615 18.096 51.5135 17.968C51.0762 17.8293 50.6815 17.6533 50.3295 17.44C49.9775 17.2267 49.6522 16.9813 49.3535 16.704C49.0548 16.4267 48.7935 16.1227 48.5695 15.792C48.3562 15.4613 48.1748 15.1147 48.0255 14.752C47.8762 14.3787 47.7642 14 47.6895 13.616C47.6148 13.2213 47.5775 12.8213 47.5775 12.416C47.5775 11.7013 47.6948 11.0133 47.9295 10.352C48.1642 9.69067 48.4948 9.088 48.9215 8.544C49.3588 8 49.9242 7.552 50.6175 7.2C51.3108 6.848 52.0788 6.64 52.9215 6.576V5.12H55.2895V6.576C56.1428 6.64 56.9162 6.848 57.6095 7.2C58.3028 7.54133 58.8628 7.984 59.2895 8.528C59.7162 9.06133 60.0415 9.65867 60.2655 10.32C60.5002 10.9707 60.6175 11.6533 60.6175 12.368ZM55.2735 15.968C56.1802 15.84 56.8895 15.4347 57.4015 14.752C57.9242 14.0693 58.1855 13.2853 58.1855 12.4C58.1855 11.5253 57.9242 10.7467 57.4015 10.064C56.8895 9.38133 56.1802 8.98133 55.2735 8.864V15.968ZM50.0415 12.4C50.0415 13.2853 50.2975 14.0693 50.8095 14.752C51.3322 15.4347 52.0468 15.84 52.9535 15.968V8.864C52.0468 8.98133 51.3322 9.38133 50.8095 10.064C50.2975 10.7467 50.0415 11.5253 50.0415 12.4Z" fill="black"/>
</g>
<defs>
<filter id="filter0_b_10_564" x="8" y="-8" width="70" height="42" filterUnits="userSpaceOnUse" color-interpolation-filters="sRGB">
<feFlood flood-opacity="0" result="BackgroundImageFix"/>
<feGaussianBlur in="BackgroundImageFix" stdDeviation="4"/>
<feComposite in2="SourceAlpha" operator="in" result="effect1_backgroundBlur_10_564"/>
<feBlend in="SourceGraphic" in2="effect1_backgroundBlur_10_564" result="shape"/>
</filter>
</defs>
</svg>
